<svg xmlns="http://www.w3.org/2000/svg" viewBox="0 0 23 23"><symbol id="a" viewBox="0 0 23 23"><g fill="none" fill-rule="evenodd"><path d="M0 30V0h30v30z" transform="rotate(-90 11.5 15.5)"/><path d="M8.274 17.388a1.285 1.285 0 0 0-.007-1.309l-1.22-2.046a1.28 1.28 0 0 1 .088-1.45c.567-.726 1.52-1.895 2.538-2.912s2.186-1.971 2.912-2.538a1.28 1.28 0 0 1 1.45-.087l2.046 1.219a1.29 1.29 0 0 0 1.313.005l5.129-3.003c.496-.291.74-.869.603-1.428-.133-.543-.455-1.248-1.194-1.987-2.314-2.314-6.217-3.543-14.92 5.159s-7.473 12.606-5.16 14.92c.742.741 1.448 1.062 1.992 1.195a1.288 1.288 0 0 0 1.422-.6l3.008-5.138z" transform="rotate(-90 11.5 11.663)" fill="#00f" fill-rule="nonzero"/></g></symbol><use xlink:href="#a" xmlns:xlink="http://www.w3.org/1999/xlink"/></svg>