<svg xmlnsXlink="http://www.w3.org/1999/xlink" xmlns="http://www.w3.org/2000/svg" id="toggle-nav" class="toggle-nav" width="277" height="272"><defs><symbol id="tools" viewBox="0 0 277 272">
        <g fill="none" fill-rule="evenodd">
            <g fill="#727272" fill-rule="nonzero">
                <path id="Path" d="m33.144 0.471c-17.808 0-32.294 14.487-32.294 32.294s14.48 32.293 32.294 32.293 32.294-14.486 32.294-32.293-14.487-32.294-32.294-32.294z"></path>
                <path id="Path" d="m137.66 0.471c-17.807 0-32.294 14.487-32.294 32.294s14.487 32.293 32.294 32.293c17.808 0 32.297-14.486 32.297-32.293s-14.483-32.294-32.297-32.294z"></path>
                <path id="Path" d="m243.87 65.059c17.804 0 32.294-14.486 32.294-32.293s-14.478-32.295-32.294-32.295-32.294 14.487-32.294 32.294 14.489 32.294 32.294 32.294z"></path>
                <path id="Path" d="m32.3 168.54c17.807 0 32.297-14.483 32.297-32.293 0-17.811-14.49-32.297-32.297-32.297s-32.3 14.487-32.3 32.297 14.493 32.293 32.3 32.293z"></path>
                <path id="Path" d="m136.82 168.54c17.804 0 32.294-14.483 32.294-32.293 0-17.811-14.478-32.297-32.294-32.297-17.813 0-32.294 14.486-32.294 32.297 0 17.81 14.487 32.293 32.294 32.293z"></path>
                <path id="Path" d="m243.04 168.54c17.811 0 32.294-14.483 32.294-32.293 0-17.811-14.483-32.297-32.294-32.297s-32.306 14.486-32.306 32.297c0 17.81 14.49 32.293 32.306 32.293z"></path>
                <path id="a" d="m33.039 207.11c-17.807 0-32.3 14.483-32.3 32.294 0 17.804 14.493 32.293 32.3 32.293s32.293-14.482 32.293-32.293-14.486-32.294-32.293-32.294z"></path>
                <path d="m137.56 207.11c-17.808 0-32.3 14.483-32.3 32.294 0 17.804 14.487 32.293 32.3 32.293 17.804 0 32.293-14.482 32.293-32.293s-14.489-32.294-32.293-32.294z"></path>
                <path d="m243.77 207.11c-17.804 0-32.294 14.483-32.294 32.294 0 17.804 14.49 32.293 32.294 32.293 17.811 0 32.294-14.482 32.294-32.293s-14.49-32.294-32.294-32.294z"></path>
            </g>
        </g>
    </symbol></defs>
<g>
        <g fill="none" fill-rule="evenodd">
            <g fill="#727272" fill-rule="nonzero">
                <path id="Path" d="m33.144 0.471c-17.808 0-32.294 14.487-32.294 32.294s14.48 32.293 32.294 32.293 32.294-14.486 32.294-32.293-14.487-32.294-32.294-32.294z"></path>
                <path id="Path" d="m137.66 0.471c-17.807 0-32.294 14.487-32.294 32.294s14.487 32.293 32.294 32.293c17.808 0 32.297-14.486 32.297-32.293s-14.483-32.294-32.297-32.294z"></path>
                <path id="Path" d="m243.87 65.059c17.804 0 32.294-14.486 32.294-32.293s-14.478-32.295-32.294-32.295-32.294 14.487-32.294 32.294 14.489 32.294 32.294 32.294z"></path>
                <path id="Path" d="m32.3 168.54c17.807 0 32.297-14.483 32.297-32.293 0-17.811-14.49-32.297-32.297-32.297s-32.3 14.487-32.3 32.297 14.493 32.293 32.3 32.293z"></path>
                <path id="Path" d="m136.82 168.54c17.804 0 32.294-14.483 32.294-32.293 0-17.811-14.478-32.297-32.294-32.297-17.813 0-32.294 14.486-32.294 32.297 0 17.81 14.487 32.293 32.294 32.293z"></path>
                <path id="Path" d="m243.04 168.54c17.811 0 32.294-14.483 32.294-32.293 0-17.811-14.483-32.297-32.294-32.297s-32.306 14.486-32.306 32.297c0 17.81 14.49 32.293 32.306 32.293z"></path>
                <path id="a" d="m33.039 207.11c-17.807 0-32.3 14.483-32.3 32.294 0 17.804 14.493 32.293 32.3 32.293s32.293-14.482 32.293-32.293-14.486-32.294-32.293-32.294z"></path>
                <path d="m137.56 207.11c-17.808 0-32.3 14.483-32.3 32.294 0 17.804 14.487 32.293 32.3 32.293 17.804 0 32.293-14.482 32.293-32.293s-14.489-32.294-32.293-32.294z"></path>
                <path d="m243.77 207.11c-17.804 0-32.294 14.483-32.294 32.294 0 17.804 14.49 32.293 32.294 32.293 17.811 0 32.294-14.482 32.294-32.293s-14.49-32.294-32.294-32.294z"></path>
            </g>
        </g>
    </g>
</svg>